<?xml version="1.0" encoding="UTF-8" standalone="no"?>
<svg
   xmlns:dc="http://purl.org/dc/elements/1.1/"
   xmlns:cc="http://creativecommons.org/ns#"
   xmlns:rdf="http://www.w3.org/1999/02/22-rdf-syntax-ns#"
   xmlns:svg="http://www.w3.org/2000/svg"
   xmlns="http://www.w3.org/2000/svg"
   xmlns:sodipodi="http://sodipodi.sourceforge.net/DTD/sodipodi-0.dtd"
   xmlns:inkscape="http://www.inkscape.org/namespaces/inkscape"
   version="1.1"
   viewBox="0 0 295.82 349.99999"
   enable-background="new 0 0 295.82 295.82"
   id="svg12"
   sodipodi:docname="005-question.svg"
   width="295.82001"
   height="350"
   inkscape:version="0.92.1 r15371">
  <metadata
     id="metadata18">
    <rdf:RDF>
      <cc:Work
         rdf:about="">
        <dc:format>image/svg+xml</dc:format>
        <dc:type
           rdf:resource="http://purl.org/dc/dcmitype/StillImage" />
        <dc:title />
      </cc:Work>
    </rdf:RDF>
  </metadata>
  <defs
     id="defs16" />
  <sodipodi:namedview
     pagecolor="#ffffff"
     bordercolor="#666666"
     borderopacity="1"
     objecttolerance="10"
     gridtolerance="10"
     guidetolerance="10"
     inkscape:pageopacity="0"
     inkscape:pageshadow="2"
     inkscape:window-width="1366"
     inkscape:window-height="705"
     id="namedview14"
     showgrid="false"
     inkscape:zoom="1.5955648"
     inkscape:cx="350.84254"
     inkscape:cy="186.68827"
     inkscape:window-x="1276"
     inkscape:window-y="-4"
     inkscape:window-maximized="1"
     inkscape:current-layer="svg12" />
  <g
     id="g4544">
    <path
       inkscape:connector-curvature="0"
       id="path2"
       d="m 154.871,99.784993 c -10.441,-3.48 -22.621,0 -31.322,6.959997 -8.701,6.96 -13.921,17.401 -13.921,29.582 0,5.22 3.48,8.701 8.701,8.701 5.22,0 8.701,-3.48 8.701,-8.701 0,-5.22 1.74,-12.181 6.96,-15.661 5.22,-3.48 10.441,-5.22 17.401,-3.48 8.701,1.74 13.921,8.701 15.661,15.661 1.74,8.701 0,15.661 -6.96,20.882 -13.921,10.441 -20.882,26.102 -20.882,41.763 0,5.22 3.48,8.701 8.701,8.701 5.22,0 8.701,-3.48 6.96,-8.701 0,-10.441 6.96,-20.882 15.661,-27.842 12.181,-10.441 17.401,-24.362 13.921,-38.283 -3.481,-15.661 -15.661,-26.102 -29.582,-29.581997 z" />
    <path
       inkscape:connector-curvature="0"
       id="path4"
       d="m 140.95,240.73499 c -1.74,1.74 -1.74,5.22 -1.74,6.96 0,1.74 0,3.48 1.74,5.22 1.74,1.74 5.22,3.48 6.96,3.48 1.74,0 5.22,-1.74 5.22,-3.48 1.74,0 3.48,-3.48 3.48,-5.22 0,-3.48 -1.74,-5.22 -3.48,-6.96 -3.48,-3.481 -8.7,-3.481 -12.18,0 z" />
  </g>
  <path
     style="fill:none;stroke:#000000;stroke-width:0;stroke-linecap:butt;stroke-linejoin:miter;stroke-opacity:1;stroke-miterlimit:4;stroke-dasharray:none"
     d="M 49.635063,69.91643 144.47349,14.963324 212.7217,48.64426"
     id="path4485"
     inkscape:connector-curvature="0" />
  <path
     style="color:#000000;font-style:normal;font-variant:normal;font-weight:normal;font-stretch:normal;font-size:medium;line-height:normal;font-family:sans-serif;font-variant-ligatures:normal;font-variant-position:normal;font-variant-caps:normal;font-variant-numeric:normal;font-variant-alternates:normal;font-feature-settings:normal;text-indent:0;text-align:start;text-decoration:none;text-decoration-line:none;text-decoration-style:solid;text-decoration-color:#000000;letter-spacing:normal;word-spacing:normal;text-transform:none;writing-mode:lr-tb;direction:ltr;text-orientation:mixed;dominant-baseline:auto;baseline-shift:baseline;text-anchor:start;white-space:normal;shape-padding:0;clip-rule:nonzero;display:inline;overflow:visible;visibility:visible;opacity:1;isolation:auto;mix-blend-mode:normal;color-interpolation:sRGB;color-interpolation-filters:linearRGB;solid-color:#000000;solid-opacity:1;vector-effect:none;fill:#000000;fill-opacity:1;fill-rule:nonzero;stroke:none;stroke-width:8;stroke-linecap:butt;stroke-linejoin:miter;stroke-miterlimit:4;stroke-dasharray:none;stroke-dashoffset:0;stroke-opacity:1;color-rendering:auto;image-rendering:auto;shape-rendering:auto;text-rendering:auto;enable-background:accumulate"
     d="M -0.47851562,-3.21875 V 0.77734375 H -4 V 350.45508 H 300.03711 V -3.21875 Z M 4,4.78125 H 292.03711 V 342.45508 H 4 Z"
     id="path4487"
     inkscape:connector-curvature="0" />
</svg>
